<svg xmlns="http://www.w3.org/2000/svg" xmlns:xlink="http://www.w3.org/1999/xlink" width="500" zoomAndPan="magnify" viewBox="0 0 375 374.999991" height="500" preserveAspectRatio="xMidYMid meet" version="1.2"><defs><clipPath id="0d91341884"><path d="M 57 70.195312 L 318 70.195312 L 318 231.445312 L 57 231.445312 Z M 57 70.195312 "/></clipPath><clipPath id="3e39f4f65f"><path d="M 95 82.800781 L 201.503906 82.800781 L 201.503906 154 L 95 154 Z M 95 82.800781 "/></clipPath><clipPath id="f0f7082ae5"><path d="M 93.503906 138 L 200 138 L 200 181 L 93.503906 181 Z M 93.503906 138 "/></clipPath><clipPath id="544dff4c30"><path d="M 148 182 L 167 182 L 167 205.800781 L 148 205.800781 Z M 148 182 "/></clipPath><clipPath id="1940b0b1d8"><path d="M 128 182 L 146 182 L 146 205.800781 L 128 205.800781 Z M 128 182 "/></clipPath><clipPath id="9b97b6ff16"><rect x="0" width="64" y="0" height="34"/></clipPath><clipPath id="4213ebe7ad"><path d="M 1 0.0390625 L 13 0.0390625 L 13 13 L 1 13 Z M 1 0.0390625 "/></clipPath><clipPath id="8c772496bc"><path d="M 13 0.0390625 L 27 0.0390625 L 27 13 L 13 13 Z M 13 0.0390625 "/></clipPath><clipPath id="d99be3b191"><path d="M 28 0.0390625 L 40 0.0390625 L 40 13 L 28 13 Z M 28 0.0390625 "/></clipPath><clipPath id="eeb8ddf682"><path d="M 42 0.0390625 L 52 0.0390625 L 52 13 L 42 13 Z M 42 0.0390625 "/></clipPath><clipPath id="2d598b4679"><path d="M 52 0.0390625 L 63 0.0390625 L 63 13 L 52 13 Z M 52 0.0390625 "/></clipPath><clipPath id="fdbbdfafa1"><path d="M 64 0.0390625 L 73 0.0390625 L 73 13 L 64 13 Z M 64 0.0390625 "/></clipPath><clipPath id="7e1199cc1f"><path d="M 74 0.0390625 L 83 0.0390625 L 83 13 L 74 13 Z M 74 0.0390625 "/></clipPath><clipPath id="2b8af6fe15"><path d="M 84 0.0390625 L 94 0.0390625 L 94 13 L 84 13 Z M 84 0.0390625 "/></clipPath><clipPath id="ec2e428fa8"><path d="M 99 0.0390625 L 109 0.0390625 L 109 13 L 99 13 Z M 99 0.0390625 "/></clipPath><clipPath id="1a71aede13"><path d="M 110 0.0390625 L 119 0.0390625 L 119 13 L 110 13 Z M 110 0.0390625 "/></clipPath><clipPath id="ae659b138e"><path d="M 120 0.0390625 L 130 0.0390625 L 130 13 L 120 13 Z M 120 0.0390625 "/></clipPath><clipPath id="06d0fd122a"><path d="M 129 0.0390625 L 141 0.0390625 L 141 13 L 129 13 Z M 129 0.0390625 "/></clipPath><clipPath id="6a06d0d283"><path d="M 142 0.0390625 L 144 0.0390625 L 144 13 L 142 13 Z M 142 0.0390625 "/></clipPath><clipPath id="f762a87ec9"><path d="M 147 0.0390625 L 156 0.0390625 L 156 13 L 147 13 Z M 147 0.0390625 "/></clipPath><clipPath id="6f894ce7f5"><rect x="0" width="157" y="0" height="16"/></clipPath></defs><g id="d1b105fb7c"><g clip-rule="nonzero" clip-path="url(#0d91341884)"><path style=" stroke:none;fill-rule:nonzero;fill:#000000;fill-opacity:1;" d="M 82.378906 218.023438 C 81.890625 217.789062 81.429688 217.507812 81.003906 217.179688 C 79.105469 215.417969 77.992188 213.253906 77.945312 210.644531 C 77.878906 206.871094 77.871094 203.097656 77.871094 199.324219 C 77.871094 160.789062 77.871094 122.25 77.871094 83.710938 C 77.871094 82.847656 77.898438 81.980469 77.90625 81.113281 C 77.953125 75.621094 82.535156 70.542969 88.964844 70.542969 C 152.441406 70.65625 215.921875 70.675781 279.398438 70.605469 C 281.9375 70.605469 284.484375 70.730469 287.015625 70.570312 C 292.4375 70.238281 297.550781 75.445312 297.640625 80.835938 C 297.710938 84.917969 297.683594 89 297.683594 93.085938 C 297.683594 131.007812 297.695312 168.925781 297.71875 206.84375 C 297.71875 211.296875 297.25 215.382812 293.300781 218.582031 C 293.914062 218.605469 294.523438 218.660156 295.132812 218.660156 C 300.148438 218.660156 305.164062 218.640625 310.179688 218.699219 C 311.363281 218.675781 312.511719 218.851562 313.632812 219.230469 C 317.867188 220.855469 318.773438 225.992188 315.4375 229.0625 C 313.546875 230.800781 311.226562 231.347656 308.75 231.359375 C 301.9375 231.378906 295.125 231.359375 288.308594 231.359375 C 215.601562 231.359375 142.894531 231.359375 70.1875 231.359375 C 67.914062 231.359375 65.570312 231.332031 63.371094 230.828125 C 58.3125 229.667969 56.261719 224.203125 59.4375 220.726562 C 60.871094 219.160156 62.726562 218.644531 64.804688 218.652344 C 69.945312 218.675781 75.085938 218.652344 80.226562 218.652344 L 81.988281 218.652344 Z M 187.824219 204.503906 L 187.824219 204.554688 L 282.203125 204.554688 C 284.972656 204.554688 284.96875 204.539062 284.96875 201.703125 C 284.96875 186.296875 284.960938 170.894531 284.949219 155.492188 C 284.949219 132.789062 284.957031 110.089844 284.976562 87.386719 C 284.976562 85.53125 284.425781 84.96875 282.542969 84.96875 C 223.523438 85.019531 164.503906 85.035156 105.488281 85.015625 C 101.152344 85.015625 96.816406 85.054688 92.480469 85.015625 C 91.132812 85.015625 90.515625 85.507812 90.621094 86.871094 C 90.660156 87.359375 90.621094 87.859375 90.621094 88.355469 C 90.621094 126.152344 90.621094 163.949219 90.621094 201.742188 C 90.621094 202.171875 90.484375 202.695312 90.671875 203.019531 C 90.992188 203.566406 91.445312 204.214844 91.984375 204.398438 C 92.726562 204.636719 93.574219 204.492188 94.382812 204.492188 Z M 187.636719 219.050781 C 175.929688 219.050781 164.222656 219.050781 152.519531 219.050781 C 149.25 219.050781 147.382812 220.851562 147.390625 223.84375 C 147.398438 226.835938 149.402344 228.847656 152.425781 228.847656 C 175.839844 228.875 199.253906 228.882812 222.667969 228.871094 C 225.742188 228.871094 227.738281 226.734375 227.699219 223.675781 C 227.660156 220.867188 225.671875 219.058594 222.578125 219.054688 C 210.925781 219.042969 199.273438 219.039062 187.628906 219.050781 Z M 187.636719 219.050781 "/></g><path style=" stroke:none;fill-rule:nonzero;fill:#000000;fill-opacity:1;" d="M 173.347656 145.84375 C 173.347656 149.730469 170.195312 152.890625 166.300781 152.890625 C 162.40625 152.890625 159.253906 149.738281 159.253906 145.84375 C 159.253906 141.945312 162.40625 138.792969 166.300781 138.792969 C 170.195312 138.792969 173.347656 141.945312 173.347656 145.84375 Z M 173.347656 145.84375 "/><path style=" stroke:none;fill-rule:nonzero;fill:#000000;fill-opacity:1;" d="M 128.410156 138.792969 C 132.296875 138.792969 135.457031 141.945312 135.457031 145.84375 C 135.457031 149.730469 132.304688 152.890625 128.410156 152.890625 C 124.515625 152.890625 121.359375 149.730469 121.359375 145.84375 C 121.359375 141.945312 124.515625 138.792969 128.410156 138.792969 Z M 128.410156 138.792969 "/><g clip-rule="nonzero" clip-path="url(#3e39f4f65f)"><path style=" stroke:none;fill-rule:nonzero;fill:#000000;fill-opacity:1;" d="M 190 153.347656 L 201.164062 153.347656 C 201.167969 153.101562 201.199219 152.859375 201.199219 152.621094 L 201.199219 139.054688 C 201.199219 123.4375 188.492188 110.734375 172.875 110.734375 L 149.875 110.734375 L 149.875 98.59375 C 153.105469 97.523438 155.457031 94.515625 155.457031 90.929688 C 155.457031 86.449219 151.824219 82.816406 147.347656 82.816406 C 142.871094 82.816406 139.234375 86.449219 139.234375 90.929688 C 139.234375 94.515625 141.589844 97.53125 144.820312 98.59375 L 144.820312 110.738281 L 121.828125 110.738281 C 110.023438 110.738281 99.894531 118.007812 95.644531 128.289062 L 108.496094 128.289062 C 111.640625 124.398438 116.445312 121.902344 121.828125 121.902344 L 172.882812 121.902344 C 182.339844 121.902344 190.035156 129.597656 190.035156 139.054688 L 190.035156 152.621094 C 190.035156 152.867188 190.007812 153.109375 190 153.347656 Z M 146.65625 87.433594 C 146.65625 88.699219 145.628906 89.726562 144.363281 89.726562 C 143.09375 89.726562 142.070312 88.699219 142.070312 87.433594 C 142.070312 86.167969 143.09375 85.140625 144.363281 85.140625 C 145.628906 85.140625 146.65625 86.171875 146.65625 87.433594 Z M 146.65625 87.433594 "/></g><g clip-rule="nonzero" clip-path="url(#f0f7082ae5)"><path style=" stroke:none;fill-rule:nonzero;fill:#000000;fill-opacity:1;" d="M 93.546875 138.328125 L 104.714844 138.328125 C 104.710938 138.574219 104.679688 138.816406 104.679688 139.054688 L 104.679688 152.621094 C 104.679688 162.078125 112.375 169.773438 121.835938 169.773438 L 172.890625 169.773438 C 178.269531 169.773438 183.074219 167.277344 186.222656 163.390625 L 199.074219 163.390625 C 194.828125 173.679688 184.691406 180.9375 172.890625 180.9375 L 121.828125 180.9375 C 106.207031 180.9375 93.503906 168.230469 93.503906 152.613281 L 93.503906 139.054688 C 93.503906 138.808594 93.539062 138.570312 93.546875 138.328125 Z M 93.546875 138.328125 "/></g><g clip-rule="nonzero" clip-path="url(#544dff4c30)"><path style=" stroke:none;fill-rule:nonzero;fill:#000000;fill-opacity:1;" d="M 166.46875 184.964844 L 166.46875 202.976562 L 163.160156 205.867188 L 148.992188 196.890625 L 148.992188 191.042969 L 163.160156 182.066406 Z M 166.46875 184.964844 "/></g><g clip-rule="nonzero" clip-path="url(#1940b0b1d8)"><path style=" stroke:none;fill-rule:nonzero;fill:#000000;fill-opacity:1;" d="M 145.714844 191.042969 L 145.714844 196.890625 L 131.546875 205.867188 L 128.242188 202.976562 L 128.242188 184.964844 L 131.546875 182.066406 Z M 145.714844 191.042969 "/></g><path style=" stroke:none;fill-rule:nonzero;fill:#000000;fill-opacity:1;" d="M 146.191406 191.109375 L 148.519531 191.109375 L 148.519531 196.824219 L 146.191406 196.824219 Z M 146.191406 191.109375 "/><g transform="matrix(1,0,0,1,210,134)"><g clip-path="url(#9b97b6ff16)"><g style="fill:#000000;fill-opacity:1;"><g transform="translate(1.420611, 26.443044)"><path style="stroke:none" d="M 4.703125 0 L 0.71875 0 L 0.71875 -4.109375 L 4.71875 -4.109375 C 5.625 -4.109375 6.414062 -4.296875 7.09375 -4.671875 C 7.78125 -5.054688 8.3125 -5.597656 8.6875 -6.296875 C 9.0625 -7.003906 9.25 -7.835938 9.25 -8.796875 L 9.25 -25.046875 L 13.796875 -25.046875 L 13.796875 -8.546875 C 13.796875 -7.179688 13.566406 -5.96875 13.109375 -4.90625 C 12.660156 -3.851562 12.023438 -2.960938 11.203125 -2.234375 C 10.390625 -1.503906 9.429688 -0.945312 8.328125 -0.5625 C 7.222656 -0.1875 6.015625 0 4.703125 0 Z M 4.703125 0 "/></g></g><g style="fill:#000000;fill-opacity:1;"><g transform="translate(17.734079, 26.443044)"><path style="stroke:none" d="M 12.8125 0 L 8.25 0 L 8.25 -20.953125 L 0.796875 -20.953125 L 0.796875 -25.046875 L 20.28125 -25.046875 L 20.28125 -20.953125 L 12.8125 -20.953125 Z M 12.8125 0 "/></g></g><g style="fill:#000000;fill-opacity:1;"><g transform="translate(38.79797, 26.443044)"><path style="stroke:none" d="M 7.5625 0 L 2.984375 0 L 2.984375 -25.046875 L 13.796875 -25.046875 C 15.054688 -25.046875 16.21875 -24.851562 17.28125 -24.46875 C 18.34375 -24.082031 19.257812 -23.523438 20.03125 -22.796875 C 20.8125 -22.078125 21.414062 -21.21875 21.84375 -20.21875 C 22.269531 -19.21875 22.484375 -18.109375 22.484375 -16.890625 C 22.484375 -15.710938 22.269531 -14.632812 21.84375 -13.65625 C 21.425781 -12.6875 20.835938 -11.851562 20.078125 -11.15625 C 19.316406 -10.46875 18.421875 -9.945312 17.390625 -9.59375 L 23.0625 0 L 17.796875 0 L 12.84375 -8.890625 C 12.675781 -8.878906 12.515625 -8.875 12.359375 -8.875 C 12.203125 -8.875 12.035156 -8.875 11.859375 -8.875 L 7.5625 -8.875 Z M 7.5625 -20.953125 L 7.5625 -12.75 L 13.625 -12.75 C 14.4375 -12.757812 15.164062 -12.9375 15.8125 -13.28125 C 16.457031 -13.632812 16.96875 -14.117188 17.34375 -14.734375 C 17.71875 -15.359375 17.90625 -16.078125 17.90625 -16.890625 C 17.90625 -17.648438 17.710938 -18.335938 17.328125 -18.953125 C 16.953125 -19.566406 16.441406 -20.050781 15.796875 -20.40625 C 15.148438 -20.769531 14.421875 -20.953125 13.609375 -20.953125 Z M 7.5625 -20.953125 "/></g></g></g></g><g transform="matrix(1,0,0,1,109,245)"><g clip-path="url(#6f894ce7f5)"><g clip-rule="nonzero" clip-path="url(#4213ebe7ad)"><g style="fill:#000000;fill-opacity:1;"><g transform="translate(0.472242, 12.183511)"><path style="stroke:none" d="M 6.640625 0.234375 C 5.972656 0.234375 5.335938 0.132812 4.734375 -0.0625 C 4.140625 -0.269531 3.59375 -0.554688 3.09375 -0.921875 C 2.601562 -1.285156 2.175781 -1.710938 1.8125 -2.203125 C 1.445312 -2.703125 1.164062 -3.25 0.96875 -3.84375 C 0.78125 -4.4375 0.6875 -5.066406 0.6875 -5.734375 C 0.6875 -6.398438 0.78125 -7.03125 0.96875 -7.625 C 1.164062 -8.226562 1.445312 -8.773438 1.8125 -9.265625 C 2.175781 -9.765625 2.601562 -10.191406 3.09375 -10.546875 C 3.59375 -10.910156 4.140625 -11.191406 4.734375 -11.390625 C 5.335938 -11.597656 5.972656 -11.703125 6.640625 -11.703125 C 7.253906 -11.703125 7.847656 -11.613281 8.421875 -11.4375 C 9.003906 -11.269531 9.535156 -11.015625 10.015625 -10.671875 C 10.503906 -10.328125 10.921875 -9.894531 11.265625 -9.375 C 11.617188 -8.851562 11.867188 -8.25 12.015625 -7.5625 L 10.5 -7.5625 C 10.320312 -8.175781 10.046875 -8.6875 9.671875 -9.09375 C 9.296875 -9.507812 8.84375 -9.816406 8.3125 -10.015625 C 7.789062 -10.222656 7.222656 -10.328125 6.609375 -10.328125 C 5.984375 -10.328125 5.398438 -10.210938 4.859375 -9.984375 C 4.328125 -9.765625 3.859375 -9.445312 3.453125 -9.03125 C 3.054688 -8.625 2.742188 -8.140625 2.515625 -7.578125 C 2.285156 -7.015625 2.171875 -6.398438 2.171875 -5.734375 C 2.171875 -5.054688 2.285156 -4.4375 2.515625 -3.875 C 2.742188 -3.3125 3.054688 -2.828125 3.453125 -2.421875 C 3.859375 -2.015625 4.328125 -1.703125 4.859375 -1.484375 C 5.398438 -1.265625 5.984375 -1.15625 6.609375 -1.15625 C 7.222656 -1.15625 7.789062 -1.253906 8.3125 -1.453125 C 8.832031 -1.660156 9.28125 -1.96875 9.65625 -2.375 C 10.039062 -2.789062 10.316406 -3.300781 10.484375 -3.90625 L 12.015625 -3.90625 C 11.867188 -3.21875 11.625 -2.613281 11.28125 -2.09375 C 10.9375 -1.582031 10.519531 -1.148438 10.03125 -0.796875 C 9.539062 -0.453125 9.003906 -0.191406 8.421875 -0.015625 C 7.847656 0.148438 7.253906 0.234375 6.640625 0.234375 Z M 6.640625 0.234375 "/></g></g></g><g clip-rule="nonzero" clip-path="url(#8c772496bc)"><g style="fill:#000000;fill-opacity:1;"><g transform="translate(13.167451, 12.183511)"><path style="stroke:none" d="M 6.796875 0.234375 C 6.117188 0.234375 5.472656 0.132812 4.859375 -0.0625 C 4.253906 -0.269531 3.695312 -0.554688 3.1875 -0.921875 C 2.675781 -1.285156 2.234375 -1.710938 1.859375 -2.203125 C 1.484375 -2.703125 1.191406 -3.25 0.984375 -3.84375 C 0.785156 -4.4375 0.6875 -5.066406 0.6875 -5.734375 C 0.6875 -6.398438 0.785156 -7.03125 0.984375 -7.625 C 1.191406 -8.226562 1.484375 -8.773438 1.859375 -9.265625 C 2.234375 -9.765625 2.675781 -10.191406 3.1875 -10.546875 C 3.695312 -10.910156 4.253906 -11.191406 4.859375 -11.390625 C 5.472656 -11.597656 6.117188 -11.703125 6.796875 -11.703125 C 7.472656 -11.703125 8.113281 -11.597656 8.71875 -11.390625 C 9.332031 -11.191406 9.894531 -10.910156 10.40625 -10.546875 C 10.914062 -10.191406 11.359375 -9.765625 11.734375 -9.265625 C 12.109375 -8.773438 12.398438 -8.226562 12.609375 -7.625 C 12.816406 -7.03125 12.921875 -6.398438 12.921875 -5.734375 C 12.921875 -5.066406 12.816406 -4.4375 12.609375 -3.84375 C 12.398438 -3.25 12.109375 -2.703125 11.734375 -2.203125 C 11.359375 -1.710938 10.914062 -1.285156 10.40625 -0.921875 C 9.894531 -0.554688 9.332031 -0.269531 8.71875 -0.0625 C 8.113281 0.132812 7.472656 0.234375 6.796875 0.234375 Z M 6.796875 -1.15625 C 7.429688 -1.15625 8.03125 -1.269531 8.59375 -1.5 C 9.15625 -1.726562 9.648438 -2.050781 10.078125 -2.46875 C 10.503906 -2.882812 10.832031 -3.367188 11.0625 -3.921875 C 11.300781 -4.472656 11.421875 -5.078125 11.421875 -5.734375 C 11.421875 -6.378906 11.300781 -6.976562 11.0625 -7.53125 C 10.832031 -8.09375 10.503906 -8.582031 10.078125 -9 C 9.648438 -9.414062 9.15625 -9.738281 8.59375 -9.96875 C 8.03125 -10.207031 7.429688 -10.328125 6.796875 -10.328125 C 6.148438 -10.328125 5.546875 -10.207031 4.984375 -9.96875 C 4.429688 -9.738281 3.941406 -9.414062 3.515625 -9 C 3.097656 -8.582031 2.769531 -8.09375 2.53125 -7.53125 C 2.289062 -6.976562 2.171875 -6.378906 2.171875 -5.734375 C 2.171875 -5.078125 2.289062 -4.472656 2.53125 -3.921875 C 2.769531 -3.367188 3.097656 -2.882812 3.515625 -2.46875 C 3.941406 -2.050781 4.429688 -1.726562 4.984375 -1.5 C 5.546875 -1.269531 6.148438 -1.15625 6.796875 -1.15625 Z M 6.796875 -1.15625 "/></g></g></g><g clip-rule="nonzero" clip-path="url(#d99be3b191)"><g style="fill:#000000;fill-opacity:1;"><g transform="translate(26.762846, 12.183511)"><path style="stroke:none" d="M 3.046875 0 L 1.5625 0 L 1.5625 -11.4375 L 2.84375 -11.4375 L 7.1875 -5.671875 L 7.203125 -5.671875 L 11.546875 -11.4375 L 12.84375 -11.4375 L 12.84375 0 L 11.359375 0 L 11.359375 -9.03125 L 7.40625 -3.765625 L 6.96875 -3.765625 L 3.046875 -9.046875 Z M 3.046875 0 "/></g></g></g><g clip-rule="nonzero" clip-path="url(#eeb8ddf682)"><g style="fill:#000000;fill-opacity:1;"><g transform="translate(41.165888, 12.183511)"><path style="stroke:none" d="M 3.046875 0 L 1.5625 0 L 1.5625 -11.4375 L 6.25 -11.4375 C 6.800781 -11.4375 7.304688 -11.34375 7.765625 -11.15625 C 8.234375 -10.976562 8.640625 -10.722656 8.984375 -10.390625 C 9.328125 -10.054688 9.59375 -9.660156 9.78125 -9.203125 C 9.96875 -8.742188 10.0625 -8.242188 10.0625 -7.703125 C 10.0625 -7.140625 9.96875 -6.628906 9.78125 -6.171875 C 9.59375 -5.710938 9.328125 -5.3125 8.984375 -4.96875 C 8.648438 -4.632812 8.253906 -4.375 7.796875 -4.1875 C 7.335938 -4 6.832031 -3.90625 6.28125 -3.90625 L 3.046875 -3.90625 Z M 3.046875 -10.109375 L 3.046875 -5.265625 L 6.21875 -5.265625 C 6.664062 -5.265625 7.066406 -5.367188 7.421875 -5.578125 C 7.773438 -5.796875 8.050781 -6.085938 8.25 -6.453125 C 8.457031 -6.828125 8.5625 -7.242188 8.5625 -7.703125 C 8.5625 -8.035156 8.503906 -8.34375 8.390625 -8.625 C 8.273438 -8.914062 8.109375 -9.171875 7.890625 -9.390625 C 7.671875 -9.617188 7.414062 -9.796875 7.125 -9.921875 C 6.84375 -10.046875 6.535156 -10.109375 6.203125 -10.109375 Z M 3.046875 -10.109375 "/></g></g></g><g clip-rule="nonzero" clip-path="url(#2d598b4679)"><g style="fill:#000000;fill-opacity:1;"><g transform="translate(51.564346, 12.183511)"><path style="stroke:none" d="M 6.078125 0.234375 C 5.410156 0.234375 4.785156 0.125 4.203125 -0.09375 C 3.628906 -0.3125 3.128906 -0.625 2.703125 -1.03125 C 2.273438 -1.445312 1.941406 -1.941406 1.703125 -2.515625 C 1.460938 -3.085938 1.34375 -3.726562 1.34375 -4.4375 L 1.34375 -11.453125 L 2.8125 -11.453125 L 2.8125 -4.546875 C 2.8125 -4.078125 2.882812 -3.632812 3.03125 -3.21875 C 3.175781 -2.8125 3.382812 -2.453125 3.65625 -2.140625 C 3.9375 -1.828125 4.28125 -1.582031 4.6875 -1.40625 C 5.09375 -1.226562 5.554688 -1.140625 6.078125 -1.140625 C 6.585938 -1.140625 7.039062 -1.226562 7.4375 -1.40625 C 7.84375 -1.582031 8.1875 -1.820312 8.46875 -2.125 C 8.75 -2.4375 8.960938 -2.796875 9.109375 -3.203125 C 9.253906 -3.617188 9.328125 -4.0625 9.328125 -4.53125 L 9.328125 -11.453125 L 10.8125 -11.453125 L 10.8125 -4.4375 C 10.8125 -3.75 10.691406 -3.117188 10.453125 -2.546875 C 10.222656 -1.972656 9.894531 -1.476562 9.46875 -1.0625 C 9.050781 -0.65625 8.550781 -0.335938 7.96875 -0.109375 C 7.394531 0.117188 6.765625 0.234375 6.078125 0.234375 Z M 6.078125 0.234375 "/></g></g></g><g clip-rule="nonzero" clip-path="url(#fdbbdfafa1)"><g style="fill:#000000;fill-opacity:1;"><g transform="translate(63.712707, 12.183511)"><path style="stroke:none" d="M 5.515625 0 L 4.03125 0 L 4.03125 -10.109375 L 0.40625 -10.109375 L 0.40625 -11.4375 L 9.140625 -11.4375 L 9.140625 -10.109375 L 5.515625 -10.109375 Z M 5.515625 0 "/></g></g></g><g clip-rule="nonzero" clip-path="url(#7e1199cc1f)"><g style="fill:#000000;fill-opacity:1;"><g transform="translate(73.278283, 12.183511)"><path style="stroke:none" d="M 9.234375 0 L 1.5625 0 L 1.5625 -11.4375 L 9.171875 -11.4375 L 9.171875 -10.09375 L 3.046875 -10.09375 L 3.046875 -6.46875 L 8.359375 -6.46875 L 8.359375 -5.1875 L 3.046875 -5.1875 L 3.046875 -1.34375 L 9.234375 -1.34375 Z M 9.234375 0 "/></g></g></g><g clip-rule="nonzero" clip-path="url(#2b8af6fe15)"><g style="fill:#000000;fill-opacity:1;"><g transform="translate(83.121484, 12.183511)"><path style="stroke:none" d="M 3.046875 0 L 1.5625 0 L 1.5625 -11.4375 L 6.421875 -11.4375 C 6.972656 -11.4375 7.476562 -11.351562 7.9375 -11.1875 C 8.40625 -11.019531 8.804688 -10.773438 9.140625 -10.453125 C 9.484375 -10.140625 9.75 -9.757812 9.9375 -9.3125 C 10.125 -8.875 10.21875 -8.382812 10.21875 -7.84375 C 10.21875 -7.289062 10.113281 -6.785156 9.90625 -6.328125 C 9.695312 -5.878906 9.40625 -5.5 9.03125 -5.1875 C 8.65625 -4.882812 8.210938 -4.664062 7.703125 -4.53125 L 10.46875 0 L 8.75 0 L 6.203125 -4.3125 C 6.148438 -4.300781 6.09375 -4.296875 6.03125 -4.296875 C 5.96875 -4.296875 5.90625 -4.296875 5.84375 -4.296875 L 3.046875 -4.296875 Z M 3.046875 -10.109375 L 3.046875 -5.578125 L 6.390625 -5.578125 C 6.835938 -5.578125 7.234375 -5.671875 7.578125 -5.859375 C 7.929688 -6.046875 8.210938 -6.3125 8.421875 -6.65625 C 8.628906 -7 8.734375 -7.394531 8.734375 -7.84375 C 8.734375 -8.28125 8.628906 -8.664062 8.421875 -9 C 8.210938 -9.34375 7.925781 -9.613281 7.5625 -9.8125 C 7.207031 -10.007812 6.804688 -10.109375 6.359375 -10.109375 Z M 3.046875 -10.109375 "/></g></g></g><g style="fill:#000000;fill-opacity:1;"><g transform="translate(94.108851, 12.183511)"><path style="stroke:none" d=""/></g></g><g clip-rule="nonzero" clip-path="url(#ec2e428fa8)"><g style="fill:#000000;fill-opacity:1;"><g transform="translate(98.365825, 12.183511)"><path style="stroke:none" d="M 3.046875 0 L 1.5625 0 L 1.5625 -11.4375 L 6.421875 -11.4375 C 6.972656 -11.4375 7.476562 -11.351562 7.9375 -11.1875 C 8.40625 -11.019531 8.804688 -10.773438 9.140625 -10.453125 C 9.484375 -10.140625 9.75 -9.757812 9.9375 -9.3125 C 10.125 -8.875 10.21875 -8.382812 10.21875 -7.84375 C 10.21875 -7.289062 10.113281 -6.785156 9.90625 -6.328125 C 9.695312 -5.878906 9.40625 -5.5 9.03125 -5.1875 C 8.65625 -4.882812 8.210938 -4.664062 7.703125 -4.53125 L 10.46875 0 L 8.75 0 L 6.203125 -4.3125 C 6.148438 -4.300781 6.09375 -4.296875 6.03125 -4.296875 C 5.96875 -4.296875 5.90625 -4.296875 5.84375 -4.296875 L 3.046875 -4.296875 Z M 3.046875 -10.109375 L 3.046875 -5.578125 L 6.390625 -5.578125 C 6.835938 -5.578125 7.234375 -5.671875 7.578125 -5.859375 C 7.929688 -6.046875 8.210938 -6.3125 8.421875 -6.65625 C 8.628906 -7 8.734375 -7.394531 8.734375 -7.84375 C 8.734375 -8.28125 8.628906 -8.664062 8.421875 -9 C 8.210938 -9.34375 7.925781 -9.613281 7.5625 -9.8125 C 7.207031 -10.007812 6.804688 -10.109375 6.359375 -10.109375 Z M 3.046875 -10.109375 "/></g></g></g><g clip-rule="nonzero" clip-path="url(#1a71aede13)"><g style="fill:#000000;fill-opacity:1;"><g transform="translate(109.353193, 12.183511)"><path style="stroke:none" d="M 9.234375 0 L 1.5625 0 L 1.5625 -11.4375 L 9.171875 -11.4375 L 9.171875 -10.09375 L 3.046875 -10.09375 L 3.046875 -6.46875 L 8.359375 -6.46875 L 8.359375 -5.1875 L 3.046875 -5.1875 L 3.046875 -1.34375 L 9.234375 -1.34375 Z M 9.234375 0 "/></g></g></g><g clip-rule="nonzero" clip-path="url(#ae659b138e)"><g style="fill:#000000;fill-opacity:1;"><g transform="translate(119.196393, 12.183511)"><path style="stroke:none" d="M 3.046875 0 L 1.5625 0 L 1.5625 -11.4375 L 6.25 -11.4375 C 6.800781 -11.4375 7.304688 -11.34375 7.765625 -11.15625 C 8.234375 -10.976562 8.640625 -10.722656 8.984375 -10.390625 C 9.328125 -10.054688 9.59375 -9.660156 9.78125 -9.203125 C 9.96875 -8.742188 10.0625 -8.242188 10.0625 -7.703125 C 10.0625 -7.140625 9.96875 -6.628906 9.78125 -6.171875 C 9.59375 -5.710938 9.328125 -5.3125 8.984375 -4.96875 C 8.648438 -4.632812 8.253906 -4.375 7.796875 -4.1875 C 7.335938 -4 6.832031 -3.90625 6.28125 -3.90625 L 3.046875 -3.90625 Z M 3.046875 -10.109375 L 3.046875 -5.265625 L 6.21875 -5.265625 C 6.664062 -5.265625 7.066406 -5.367188 7.421875 -5.578125 C 7.773438 -5.796875 8.050781 -6.085938 8.25 -6.453125 C 8.457031 -6.828125 8.5625 -7.242188 8.5625 -7.703125 C 8.5625 -8.035156 8.503906 -8.34375 8.390625 -8.625 C 8.273438 -8.914062 8.109375 -9.171875 7.890625 -9.390625 C 7.671875 -9.617188 7.414062 -9.796875 7.125 -9.921875 C 6.84375 -10.046875 6.535156 -10.109375 6.203125 -10.109375 Z M 3.046875 -10.109375 "/></g></g></g><g clip-rule="nonzero" clip-path="url(#06d0fd122a)"><g style="fill:#000000;fill-opacity:1;"><g transform="translate(129.594851, 12.183511)"><path style="stroke:none" d="M 11.21875 0 L 9.640625 0 L 8.5625 -2.59375 L 2.78125 -2.59375 L 1.6875 0 L 0.109375 0 L 4.953125 -11.4375 L 6.390625 -11.4375 Z M 5.609375 -9.34375 L 3.3125 -3.859375 L 8.03125 -3.859375 L 5.71875 -9.34375 L 5.6875 -9.546875 L 5.65625 -9.546875 Z M 5.609375 -9.34375 "/></g></g></g><g clip-rule="nonzero" clip-path="url(#6a06d0d283)"><g style="fill:#000000;fill-opacity:1;"><g transform="translate(140.927156, 12.183511)"><path style="stroke:none" d="M 3.046875 0 L 1.5625 0 L 1.5625 -11.4375 L 3.046875 -11.4375 Z M 3.046875 0 "/></g></g></g><g clip-rule="nonzero" clip-path="url(#f762a87ec9)"><g style="fill:#000000;fill-opacity:1;"><g transform="translate(145.529068, 12.183511)"><path style="stroke:none" d="M 3.046875 0 L 1.5625 0 L 1.5625 -11.4375 L 6.421875 -11.4375 C 6.972656 -11.4375 7.476562 -11.351562 7.9375 -11.1875 C 8.40625 -11.019531 8.804688 -10.773438 9.140625 -10.453125 C 9.484375 -10.140625 9.75 -9.757812 9.9375 -9.3125 C 10.125 -8.875 10.21875 -8.382812 10.21875 -7.84375 C 10.21875 -7.289062 10.113281 -6.785156 9.90625 -6.328125 C 9.695312 -5.878906 9.40625 -5.5 9.03125 -5.1875 C 8.65625 -4.882812 8.210938 -4.664062 7.703125 -4.53125 L 10.46875 0 L 8.75 0 L 6.203125 -4.3125 C 6.148438 -4.300781 6.09375 -4.296875 6.03125 -4.296875 C 5.96875 -4.296875 5.90625 -4.296875 5.84375 -4.296875 L 3.046875 -4.296875 Z M 3.046875 -10.109375 L 3.046875 -5.578125 L 6.390625 -5.578125 C 6.835938 -5.578125 7.234375 -5.671875 7.578125 -5.859375 C 7.929688 -6.046875 8.210938 -6.3125 8.421875 -6.65625 C 8.628906 -7 8.734375 -7.394531 8.734375 -7.84375 C 8.734375 -8.28125 8.628906 -8.664062 8.421875 -9 C 8.210938 -9.34375 7.925781 -9.613281 7.5625 -9.8125 C 7.207031 -10.007812 6.804688 -10.109375 6.359375 -10.109375 Z M 3.046875 -10.109375 "/></g></g></g></g></g></g></svg>